<svg xmlns="http://www.w3.org/2000/svg" viewBox="0 0 400 120" width="200" height="60">
    <!-- Paw Print Icon -->
    <g fill="#00A79F">
        <circle cx="45" cy="30" r="10"/>
        <circle cx="75" cy="20" r="12"/>
        <circle cx="105" cy="30" r="10"/>
        <path d="M 75,45 C 55,45 40,60 40,80 C 40,95 55,105 75,105 C 95,105 110,95 110,80 C 110,60 95,45 75,45 Z M 75,90 C 70,90 65,85 65,80 C 65,75 70,70 75,70 C 80,70 85,75 85,80 C 85,85 80,90 75,90 Z" fill="#35BB9B"/>
        <!-- Heart shape inside the pad -->
        <path d="M 75,85 C 72,85 70,83 70,80 C 70,77 75,72 75,72 C 75,72 80,77 80,80 C 80,83 78,85 75,85 Z" fill="#ffffff"/>
    </g>
    <!-- Typography -->
    <text x="130" y="85" font-family="'Alice', serif" font-size="52" font-weight="bold" fill="#00A79F">Guau</text>
    <text x="135" y="110" font-family="'Inter', sans-serif" font-size="22" font-style="italic" fill="#666666">fresh</text>
</svg>
